<svg version="1.1" id="Layer_1" xmlns="http://www.w3.org/2000/svg" xmlns:xlink="http://www.w3.org/1999/xlink" x="0px" y="0px"
	 width="100%" viewBox="0 0 468 124" enable-background="new 0 0 468 124" xml:space="preserve">
<path fill="#FFFDFD" opacity="1.000000" stroke="none" 
	d="
M308.000000,125.000000 
	C205.333328,125.000000 103.166664,125.000000 1.000000,125.000000 
	C1.000000,83.666664 1.000000,42.333332 1.000000,1.000000 
	C157.000000,1.000000 313.000000,1.000000 469.000000,1.000000 
	C469.000000,42.333332 469.000000,83.666664 469.000000,125.000000 
	C415.500000,125.000000 362.000000,125.000000 308.000000,125.000000 
M360.762238,69.500061 
	C360.762238,49.569874 360.762238,29.639690 360.762238,9.542516 
	C353.217865,9.542516 346.202240,9.542516 338.808411,9.542516 
	C338.808411,22.637745 338.808411,35.351028 338.808411,48.636883 
	C337.255829,47.175919 336.224762,46.148827 335.134827,45.188541 
	C318.165771,30.238125 290.620422,34.432850 279.395081,54.089767 
	C270.342285,69.942245 270.099609,86.629761 278.147552,102.852356 
	C288.537170,123.795242 315.114166,130.067734 332.790588,116.289742 
	C334.888947,114.654182 336.687012,112.633385 339.281006,110.166649 
	C339.281006,114.667824 339.281006,118.249199 339.281006,121.676025 
	C346.601654,121.676025 353.507172,121.676025 360.762482,121.676025 
	C360.762482,104.401062 360.762482,87.450562 360.762238,69.500061 
M257.180176,76.500031 
	C257.180176,54.225002 257.180176,31.949974 257.180176,9.499052 
	C249.791046,9.499052 242.908081,9.499052 235.578476,9.499052 
	C235.578476,22.541050 235.578476,35.252808 235.578476,48.744946 
	C234.357346,47.637333 233.769714,47.120850 233.200073,46.585232 
	C214.202026,28.721500 184.324493,34.727654 173.637375,58.505260 
	C169.107269,68.584229 168.385986,79.045815 170.163834,89.778793 
	C173.352524,109.029213 188.433731,122.818153 206.699249,123.391548 
	C218.188263,123.752213 227.762360,119.833572 235.717438,109.726532 
	C235.717438,114.529449 235.717438,118.069847 235.717438,121.700920 
	C243.092880,121.700920 249.992920,121.700920 257.180298,121.700920 
	C257.180298,106.769173 257.180298,92.134605 257.180176,76.500031 
M99.515686,95.772980 
	C98.555489,92.751518 97.595299,89.730064 96.412491,86.008118 
	C117.846077,86.008118 138.093857,86.008118 158.243484,86.008118 
	C163.050034,62.979893 148.999146,41.199501 127.059204,37.095806 
	C101.703438,32.353207 79.851151,46.314636 76.073120,69.670822 
	C71.547707,97.647430 85.385071,119.058357 110.446602,122.857834 
	C131.977402,126.122040 154.121124,113.009537 156.300400,95.458855 
	C149.625519,95.458855 142.979828,95.379982 136.339706,95.536987 
	C135.241302,95.562958 133.865036,96.365807 133.127686,97.240150 
	C123.231216,108.975029 108.843964,108.649422 99.515686,95.772980 
M2.164385,113.522255 
	C2.164385,116.282860 2.164385,119.043465 2.164385,121.763641 
	C23.159466,121.763641 43.429569,121.763641 63.808662,121.763641 
	C63.808662,115.963226 63.808662,110.411263 63.808662,104.293167 
	C51.637535,104.293167 39.761375,104.293167 27.029247,104.293167 
	C28.444286,102.177818 29.272627,100.810600 30.224899,99.535980 
	C39.493061,87.130402 48.238720,74.277863 58.257046,62.509342 
	C64.870415,54.740627 63.926216,46.578487 63.536308,37.903503 
	C42.955853,37.903503 22.760498,37.903503 2.582357,37.903503 
	C2.582357,43.806694 2.582357,49.250259 2.582357,55.328564 
	C14.653738,55.328564 26.472239,55.328564 39.070263,55.328564 
	C27.943480,70.270683 17.560301,84.530769 6.788685,98.491142 
	C3.451697,102.815994 1.295594,107.078773 2.164385,113.522255 
M448.907593,72.501442 
	C448.907593,66.885269 448.907593,61.269093 448.907593,55.041077 
	C455.444824,55.041077 461.489410,55.041077 467.633453,55.041077 
	C467.633453,48.980793 467.633453,43.541946 467.633453,37.469570 
	C461.400269,37.469570 455.344574,37.469570 448.787781,37.469570 
	C448.787781,30.272352 448.787781,23.694082 448.787781,17.190201 
	C441.359314,17.190201 434.463684,17.190201 427.017334,17.190201 
	C427.017334,24.104893 427.017334,30.671276 427.017334,37.632324 
	C423.509125,37.632324 420.562469,37.632324 417.446167,37.632324 
	C417.446167,43.628410 417.446167,49.195709 417.446167,54.937088 
	C420.799561,55.112724 423.877960,55.273956 427.220276,55.449013 
	C427.220276,58.856373 427.177307,61.844345 427.227722,64.830742 
	C427.441101,77.475708 427.196503,90.153931 428.071014,102.753944 
	C428.738861,112.376488 434.828949,118.993378 444.195404,120.650627 
	C451.776337,121.991966 459.606964,121.922363 467.520752,122.492592 
	C467.520752,115.756699 467.520752,110.034889 467.520752,103.993858 
	C464.068909,103.993858 460.926544,104.013580 457.784546,103.989807 
	C451.000732,103.938477 448.969666,101.909416 448.920593,94.987610 
	C448.869843,87.825645 448.908203,80.663055 448.907593,72.501442 
M390.537476,37.460983 
	C387.738617,37.460983 384.939728,37.460983 381.933899,37.460983 
	C381.933899,65.862900 381.933899,93.742744 381.933899,121.600266 
	C389.110748,121.600266 395.984344,121.600266 402.683563,121.600266 
	C402.683563,93.444351 402.683563,65.689018 402.683563,37.461262 
	C398.778473,37.461262 395.143707,37.461262 390.537476,37.460983 
M404.870667,10.873302 
	C404.117126,9.594898 403.516876,8.189961 402.583954,7.059577 
	C398.110626,1.639352 388.574799,1.088024 383.327271,5.865931 
	C378.106018,10.619929 377.856964,18.612745 382.773987,23.620855 
	C386.461395,27.376509 393.612427,28.556444 398.420135,26.202524 
	C403.902863,23.518106 405.913879,19.076696 404.870667,10.873302 
z"/>
<path fill="#FF4804" opacity="1.000000" stroke="none" 
	d="
M360.762360,70.000061 
	C360.762482,87.450562 360.762482,104.401062 360.762482,121.676025 
	C353.507172,121.676025 346.601654,121.676025 339.281006,121.676025 
	C339.281006,118.249199 339.281006,114.667824 339.281006,110.166649 
	C336.687012,112.633385 334.888947,114.654182 332.790588,116.289742 
	C315.114166,130.067734 288.537170,123.795242 278.147552,102.852356 
	C270.099609,86.629761 270.342285,69.942245 279.395081,54.089767 
	C290.620422,34.432850 318.165771,30.238125 335.134827,45.188541 
	C336.224762,46.148827 337.255829,47.175919 338.808411,48.636883 
	C338.808411,35.351028 338.808411,22.637745 338.808411,9.542516 
	C346.202240,9.542516 353.217865,9.542516 360.762238,9.542516 
	C360.762238,29.639690 360.762238,49.569874 360.762360,70.000061 
M310.766357,55.923267 
	C298.600677,60.448822 293.427246,69.386955 294.818085,83.477150 
	C295.996368,95.414001 304.819916,104.241577 316.096924,104.765694 
	C327.064178,105.275429 336.058716,97.774368 338.559387,86.032860 
	C342.579224,67.158630 329.216278,52.160904 310.766357,55.923267 
z"/>
<path fill="#FF4702" opacity="1.000000" stroke="none" 
	d="
M257.180237,77.000031 
	C257.180298,92.134605 257.180298,106.769173 257.180298,121.700920 
	C249.992920,121.700920 243.092880,121.700920 235.717438,121.700920 
	C235.717438,118.069847 235.717438,114.529449 235.717438,109.726532 
	C227.762360,119.833572 218.188263,123.752213 206.699249,123.391548 
	C188.433731,122.818153 173.352524,109.029213 170.163834,89.778793 
	C168.385986,79.045815 169.107269,68.584229 173.637375,58.505260 
	C184.324493,34.727654 214.202026,28.721500 233.200073,46.585232 
	C233.769714,47.120850 234.357346,47.637333 235.578476,48.744946 
	C235.578476,35.252808 235.578476,22.541050 235.578476,9.499052 
	C242.908081,9.499052 249.791046,9.499052 257.180176,9.499052 
	C257.180176,31.949974 257.180176,54.225002 257.180237,77.000031 
M226.120865,100.761543 
	C235.427536,93.048882 238.477051,79.455704 233.431931,68.172646 
	C229.143646,58.582180 218.836685,53.231846 208.859406,55.568203 
	C199.503204,57.759113 193.728058,63.712414 191.827591,73.059807 
	C189.655502,83.743156 191.621262,93.476944 200.702911,100.392120 
	C208.559952,106.374832 217.057236,106.004463 226.120865,100.761543 
z"/>
<path fill="#FF4703" opacity="1.000000" stroke="none" 
	d="
M99.714966,96.090729 
	C108.843964,108.649422 123.231216,108.975029 133.127686,97.240150 
	C133.865036,96.365807 135.241302,95.562958 136.339706,95.536987 
	C142.979828,95.379982 149.625519,95.458855 156.300400,95.458855 
	C154.121124,113.009537 131.977402,126.122040 110.446602,122.857834 
	C85.385071,119.058357 71.547707,97.647430 76.073120,69.670822 
	C79.851151,46.314636 101.703438,32.353207 127.059204,37.095806 
	C148.999146,41.199501 163.050034,62.979893 158.243484,86.008118 
	C138.093857,86.008118 117.846077,86.008118 96.412491,86.008118 
	C97.595299,89.730064 98.555489,92.751518 99.714966,96.090729 
M102.706406,71.999535 
	C114.077873,71.999535 125.449348,71.999535 136.843811,71.999535 
	C136.233749,61.232563 128.870987,54.256874 118.323822,53.906288 
	C106.568794,53.515556 98.649879,60.222530 97.299248,71.999527 
	C98.810982,71.999527 100.289871,71.999527 102.706406,71.999535 
z"/>
<path fill="#FF4906" opacity="1.000000" stroke="none" 
	d="
M2.164452,113.045898 
	C1.295594,107.078773 3.451697,102.815994 6.788685,98.491142 
	C17.560301,84.530769 27.943480,70.270683 39.070263,55.328564 
	C26.472239,55.328564 14.653738,55.328564 2.582357,55.328564 
	C2.582357,49.250259 2.582357,43.806694 2.582357,37.903503 
	C22.760498,37.903503 42.955853,37.903503 63.536308,37.903503 
	C63.926216,46.578487 64.870415,54.740627 58.257046,62.509342 
	C48.238720,74.277863 39.493061,87.130402 30.224899,99.535980 
	C29.272627,100.810600 28.444286,102.177818 27.029247,104.293167 
	C39.761375,104.293167 51.637535,104.293167 63.808662,104.293167 
	C63.808662,110.411263 63.808662,115.963226 63.808662,121.763641 
	C43.429569,121.763641 23.159466,121.763641 2.164385,121.763641 
	C2.164385,119.043465 2.164385,116.282860 2.164452,113.045898 
z"/>
<path fill="#FF4905" opacity="1.000000" stroke="none" 
	d="
M448.907593,73.001091 
	C448.908203,80.663055 448.869843,87.825645 448.920593,94.987610 
	C448.969666,101.909416 451.000732,103.938477 457.784546,103.989807 
	C460.926544,104.013580 464.068909,103.993858 467.520752,103.993858 
	C467.520752,110.034889 467.520752,115.756699 467.520752,122.492592 
	C459.606964,121.922363 451.776337,121.991966 444.195404,120.650627 
	C434.828949,118.993378 428.738861,112.376488 428.071014,102.753944 
	C427.196503,90.153931 427.441101,77.475708 427.227722,64.830742 
	C427.177307,61.844345 427.220276,58.856373 427.220276,55.449013 
	C423.877960,55.273956 420.799561,55.112724 417.446167,54.937088 
	C417.446167,49.195709 417.446167,43.628410 417.446167,37.632324 
	C420.562469,37.632324 423.509125,37.632324 427.017334,37.632324 
	C427.017334,30.671276 427.017334,24.104893 427.017334,17.190201 
	C434.463684,17.190201 441.359314,17.190201 448.787781,17.190201 
	C448.787781,23.694082 448.787781,30.272352 448.787781,37.469570 
	C455.344574,37.469570 461.400269,37.469570 467.633453,37.469570 
	C467.633453,43.541946 467.633453,48.980793 467.633453,55.041077 
	C461.489410,55.041077 455.444824,55.041077 448.907593,55.041077 
	C448.907593,61.269093 448.907593,66.885269 448.907593,73.001091 
z"/>
<path fill="#FF4702" opacity="1.000000" stroke="none" 
	d="
M391.023224,37.461121 
	C395.143707,37.461262 398.778473,37.461262 402.683563,37.461262 
	C402.683563,65.689018 402.683563,93.444351 402.683563,121.600266 
	C395.984344,121.600266 389.110748,121.600266 381.933899,121.600266 
	C381.933899,93.742744 381.933899,65.862900 381.933899,37.460983 
	C384.939728,37.460983 387.738617,37.460983 391.023224,37.461121 
z"/>
<path fill="#FF4804" opacity="1.000000" stroke="none" 
	d="
M404.948547,11.242699 
	C405.913879,19.076696 403.902863,23.518106 398.420135,26.202524 
	C393.612427,28.556444 386.461395,27.376509 382.773987,23.620855 
	C377.856964,18.612745 378.106018,10.619929 383.327271,5.865931 
	C388.574799,1.088024 398.110626,1.639352 402.583954,7.059577 
	C403.516876,8.189961 404.117126,9.594898 404.948547,11.242699 
z"/>
<path fill="#FFFDFC" opacity="1.000000" stroke="none" 
	d="
M311.167725,55.831928 
	C329.216278,52.160904 342.579224,67.158630 338.559387,86.032860 
	C336.058716,97.774368 327.064178,105.275429 316.096924,104.765694 
	C304.819916,104.241577 295.996368,95.414001 294.818085,83.477150 
	C293.427246,69.386955 298.600677,60.448822 311.167725,55.831928 
z"/>
<path fill="#FFFDFC" opacity="1.000000" stroke="none" 
	d="
M225.791534,100.937073 
	C217.057236,106.004463 208.559952,106.374832 200.702911,100.392120 
	C191.621262,93.476944 189.655502,83.743156 191.827591,73.059807 
	C193.728058,63.712414 199.503204,57.759113 208.859406,55.568203 
	C218.836685,53.231846 229.143646,58.582180 233.431931,68.172646 
	C238.477051,79.455704 235.427536,93.048882 225.791534,100.937073 
z"/>
<path fill="#FFFDFC" opacity="1.000000" stroke="none" 
	d="
M102.237579,71.999527 
	C100.289871,71.999527 98.810982,71.999527 97.299248,71.999527 
	C98.649879,60.222530 106.568794,53.515556 118.323822,53.906288 
	C128.870987,54.256874 136.233749,61.232563 136.843811,71.999535 
	C125.449348,71.999535 114.077873,71.999535 102.237579,71.999527 
z"/>
</svg>